<svg width="629" height="629" viewBox="0 0 629 629" fill="none" xmlns="http://www.w3.org/2000/svg">
<g clip-path="url(#clip0_131_142)">
<path fill-rule="evenodd" clip-rule="evenodd" d="M71.788 366.47C71.788 386.294 87.8583 402.364 107.682 402.364H179.47C199.294 402.364 215.364 386.294 215.364 366.47L215.364 222.894C215.364 203.07 231.434 187 251.258 187C271.082 187 287.152 203.07 287.152 222.894V366.47C287.152 386.294 303.222 402.364 323.046 402.364H394.834C414.658 402.364 430.728 386.294 430.728 366.47V222.894C430.728 203.07 446.798 187 466.622 187C486.446 187 502.516 203.07 502.516 222.894V438.258C502.516 458.082 486.446 474.152 466.622 474.152H35.894C16.0703 474.152 0 458.082 0 438.258L1.26782e-05 222.894C1.40786e-05 203.07 16.0703 187 35.894 187C55.7177 187 71.788 203.07 71.788 222.894L71.788 366.47ZM581.142 482.698C607.573 482.698 629 461.271 629 434.84C629 408.408 607.573 386.981 581.142 386.981C554.71 386.981 533.283 408.408 533.283 434.84C533.283 461.271 554.71 482.698 581.142 482.698Z" fill="white"/>
</g>
<defs>
<clipPath id="clip0_131_142">
<rect width="629" height="629" fill="currentColor"/>
</clipPath>
</defs>
</svg>
